<?xml version="1.0" standalone="no"?>
<!DOCTYPE svg PUBLIC "-//W3C//DTD SVG 20010904//EN"
 "http://www.w3.org/TR/2001/REC-SVG-20010904/DTD/svg10.dtd">
<svg version="1.0" xmlns="http://www.w3.org/2000/svg"
 width="700.000000pt" height="700.000000pt" viewBox="0 0 700.000000 700.000000"
 preserveAspectRatio="xMidYMid meet">
<metadata>
Created by potrace 1.14, written by Peter Selinger 2001-2017
</metadata>
<g transform="translate(0.000000,700.000000) scale(0.100000,-0.100000)"
fill="#000000" stroke="none">
<path d="M2934 6063 l1 -567 565 -1 566 0 0 568 0 567 -567 0 -567 0 2 -567z"/>
<path d="M2948 5302 c-14 -3 -16 -119 -16 -1120 0 -614 1 -1124 4 -1132 3 -13
74 -15 566 -15 l563 0 1 1133 c0 622 -2 1132 -5 1133 -23 2 -1101 3 -1113 1z"/>
<path d="M4269 5300 l-24 -5 0 -560 1 -560 566 -3 567 -2 -2 566 -2 566 -541
2 c-297 0 -551 -1 -565 -4z"/>
<path d="M1620 2843 l0 -1133 565 0 c311 0 565 3 566 8 4 29 3 2245 -1 2251
-3 4 -258 7 -567 6 l-563 0 0 -1132z"/>
<path d="M4249 3970 c-1 -3 -2 -512 -3 -1133 l-1 -1127 567 0 567 0 0 1130 c0
622 -3 1131 -7 1131 -23 4 -1122 3 -1123 -1z"/>
<path d="M2958 2842 l-26 -3 0 -565 1 -564 566 0 567 0 0 565 0 565 -30 1
c-139 2 -1057 3 -1078 1z"/>
<path d="M310 1515 l0 -1135 567 2 566 3 -1 1120 c0 616 -1 1125 -1 1132 -1
10 -129 12 -566 13 l-565 0 0 -1135z"/>
<path d="M5559 2608 c-1 -55 -1 -2175 0 -2206 l1 -22 565 0 565 1 0 1134 0
1134 -565 1 -565 0 -1 -42z"/>
<path d="M1624 1511 c-2 -2 -4 -258 -4 -567 l0 -564 565 0 c530 0 565 1 566
18 4 71 3 1112 -1 1113 -15 4 -1122 3 -1126 0z"/>
<path d="M2935 1510 c-2 -3 -3 -258 -3 -567 l0 -563 567 3 566 2 0 565 0 564
-563 1 c-310 0 -565 -2 -567 -5z"/>
<path d="M4249 1510 c-1 -3 -2 -258 -3 -567 l-1 -562 567 -1 567 0 0 565 c0
311 -3 565 -7 566 -27 4 -1122 3 -1123 -1z"/>
</g>
</svg>
