<svg xmlns="http://www.w3.org/2000/svg" width="158.228" height="97.979" viewBox="0 0 158.228 97.979"><g transform="translate(-56.687 -56.69)"><path d="M57,188.647a1.058,1.058,0,0,1-.309-.781V157.04a1.122,1.122,0,0,1,.309-.827,1.054,1.054,0,0,1,.781-.3H77.306a1.049,1.049,0,0,1,.777.3,1.122,1.122,0,0,1,.309.827v1.794a1.113,1.113,0,0,1-.282.781,1.049,1.049,0,0,1-.8.309H61.225v10.34H76.243a1.072,1.072,0,0,1,.781.309,1.117,1.117,0,0,1,.3.827v1.748a1.049,1.049,0,0,1-.3.777,1.071,1.071,0,0,1-.781.309H61.225v10.722H77.66a1.085,1.085,0,0,1,.8.282,1.1,1.1,0,0,1,.282.8v1.839a1.054,1.054,0,0,1-.3.781,1.072,1.072,0,0,1-.781.309H57.778A1.058,1.058,0,0,1,57,188.647Z" transform="translate(0 -54.161)" fill="#fff"/><path d="M119.813,188.079a1.054,1.054,0,0,1-.3-.781V155.954a1.04,1.04,0,0,1,1.085-1.085h2.221a1.049,1.049,0,0,1,1.085,1.085v31.357a1.058,1.058,0,0,1-1.085,1.09h-2.221A1.062,1.062,0,0,1,119.813,188.079Z" transform="translate(-34.292 -53.593)" fill="#fff"/><path d="M146.364,196.114a12.247,12.247,0,0,1-3.179-8.174l-.045-1.608.045-1.558a12.43,12.43,0,0,1,3.233-8.124,10.163,10.163,0,0,1,7.675-3.02q5.245,0,8.124,3.329t2.884,9v.8a1.054,1.054,0,0,1-.309.777,1.04,1.04,0,0,1-.781.309H147.663v.427a8.769,8.769,0,0,0,1.866,5.218,5.554,5.554,0,0,0,4.541,2.148,6.639,6.639,0,0,0,3.569-.872,7.053,7.053,0,0,0,2.053-1.816,2.825,2.825,0,0,1,.636-.686,1.817,1.817,0,0,1,.781-.118h2.316a1.1,1.1,0,0,1,.708.236.827.827,0,0,1,.282.663,4.285,4.285,0,0,1-1.3,2.5,10.723,10.723,0,0,1-3.633,2.529,12.825,12.825,0,0,1-5.359,1.063A10.377,10.377,0,0,1,146.364,196.114Zm14.241-11.548v-.141a7.842,7.842,0,0,0-1.776-5.313,5.949,5.949,0,0,0-4.746-2.053,5.813,5.813,0,0,0-4.7,2.053,7.955,7.955,0,0,0-1.726,5.313v.141Z" transform="translate(-47.192 -63.834)" fill="#fff"/><path d="M207.482,198.025l-8.737-21.912-.1-.454a.963.963,0,0,1,.286-.708.945.945,0,0,1,.708-.282h2.271a1.244,1.244,0,0,1,1.181.8l7.18,18.619,7.175-18.619a1.281,1.281,0,0,1,1.135-.8H220.9a.972.972,0,0,1,.681.282.931.931,0,0,1,.309.708l-.1.454-8.787,21.912a1.816,1.816,0,0,1-1.748,1.185h-2.007a1.785,1.785,0,0,1-1.771-1.185Z" transform="translate(-77.493 -64.401)" fill="#fff"/><path d="M260.15,198.126a7.96,7.96,0,0,1-3.143-2.575,6.112,6.112,0,0,1-1.158-3.633,6.222,6.222,0,0,1,2.575-5.123,14.429,14.429,0,0,1,6.966-2.625l7.039-.99v-1.362q0-4.823-5.527-4.818a5.84,5.84,0,0,0-5.386,2.929,1.435,1.435,0,0,1-.354.613.845.845,0,0,1-.59.186h-2.03a1.044,1.044,0,0,1-1.04-1.04,5,5,0,0,1,1.063-2.57,8.175,8.175,0,0,1,3.143-2.5,11.649,11.649,0,0,1,5.241-1.063q5.291,0,7.607,2.48a8.7,8.7,0,0,1,2.312,6.163v15.3a1.054,1.054,0,0,1-.3.781,1.072,1.072,0,0,1-.781.309h-2.153a1.058,1.058,0,0,1-1.09-1.09v-2.03a8.174,8.174,0,0,1-3.02,2.552,10.872,10.872,0,0,1-5.054,1.04A9.9,9.9,0,0,1,260.15,198.126Zm10.3-4.609a7.925,7.925,0,0,0,1.962-5.781v-1.326l-5.481.8a12.729,12.729,0,0,0-5.054,1.585,3.321,3.321,0,0,0-.141,5.713,6.6,6.6,0,0,0,3.719,1.04,6.726,6.726,0,0,0,5-2.034Z" transform="translate(-108.717 -63.789)" fill="#fff"/><path d="M316.572,180.086V167.643h-3.687a1.058,1.058,0,0,1-1.085-1.09v-1.635a1.049,1.049,0,0,1,1.085-1.085h3.688v-7.879a1.04,1.04,0,0,1,1.085-1.085h2.221a1.049,1.049,0,0,1,1.085,1.085v7.888h5.858a1.049,1.049,0,0,1,1.085,1.085v1.6a1.058,1.058,0,0,1-1.085,1.09h-5.849v12.134a6.439,6.439,0,0,0,.8,3.565,2.966,2.966,0,0,0,2.643,1.208H327.3a1.049,1.049,0,0,1,.777.3,1.072,1.072,0,0,1,.309.781v1.7a1.058,1.058,0,0,1-1.085,1.09h-3.261Q316.568,188.4,316.572,180.086Z" transform="translate(-139.259 -53.593)" fill="#fff"/><path d="M359.974,196.114a12.247,12.247,0,0,1-3.179-8.174l-.045-1.608.045-1.558a12.48,12.48,0,0,1,3.238-8.124,11.424,11.424,0,0,1,15.8.309q2.888,3.329,2.879,9v.8a1.053,1.053,0,0,1-.309.777,1.036,1.036,0,0,1-.777.309H361.278v.427a8.769,8.769,0,0,0,1.866,5.218,5.563,5.563,0,0,0,4.541,2.148,6.621,6.621,0,0,0,3.565-.872,7.053,7.053,0,0,0,2.053-1.817,2.906,2.906,0,0,1,.64-.686,1.78,1.78,0,0,1,.777-.118h2.316a1.1,1.1,0,0,1,.708.236.813.813,0,0,1,.282.663,4.166,4.166,0,0,1-1.3,2.5,10.654,10.654,0,0,1-3.633,2.529,12.847,12.847,0,0,1-5.331,1.04A10.34,10.34,0,0,1,359.974,196.114Zm14.241-11.548v-.141a7.854,7.854,0,0,0-1.771-5.313,5.954,5.954,0,0,0-4.746-2.053,5.818,5.818,0,0,0-4.7,2.053,8.019,8.019,0,0,0-1.726,5.313v.141Z" transform="translate(-163.796 -63.834)" fill="#fff"/><path d="M56.794,259.812a.331.331,0,0,1-.1-.245V250.13a.336.336,0,0,1,.1-.254.345.345,0,0,1,.245-.1H58.4a.341.341,0,0,1,.245.1.345.345,0,0,1,.1.254v9.437a.341.341,0,0,1-.1.245.327.327,0,0,1-.254.1H57.03a.336.336,0,0,1-.236-.109Z" transform="translate(-0.001 -105.403)" fill="#35a8e0"/><path d="M67.6,259.806a.327.327,0,0,1-.1-.245v-9.423a.363.363,0,0,1,.1-.259.318.318,0,0,1,.25-.1h1.117a.418.418,0,0,1,.259.068.681.681,0,0,1,.159.163l4.169,6.485v-6.358a.363.363,0,0,1,.082-.259.327.327,0,0,1,.254-.1H75.1a.354.354,0,0,1,.259.1.35.35,0,0,1,.1.259v9.414a.341.341,0,0,1-.1.259.336.336,0,0,1-.245.1H74a.509.509,0,0,1-.418-.232l-4.155-6.358v6.226a.341.341,0,0,1-.1.254.377.377,0,0,1-.263.1H67.845a.336.336,0,0,1-.245-.091Z" transform="translate(-5.902 -105.397)" fill="#35a8e0"/><path d="M92.684,259.811a.327.327,0,0,1-.1-.245v-8H89.9a.336.336,0,0,1-.245-.1.332.332,0,0,1-.1-.245v-1.072a.363.363,0,0,1,.091-.259.336.336,0,0,1,.254-.1h7.384a.354.354,0,0,1,.259.1.35.35,0,0,1,.1.259v1.072a.332.332,0,0,1-.1.245.354.354,0,0,1-.259.1H94.623v8a.327.327,0,0,1-.1.245.354.354,0,0,1-.259.1H92.938A.336.336,0,0,1,92.684,259.811Z" transform="translate(-17.944 -105.403)" fill="#35a8e0"/><path d="M111.97,259.811a.327.327,0,0,1-.1-.245v-9.423a.363.363,0,0,1,.1-.259.322.322,0,0,1,.254-.1h6.358a.359.359,0,0,1,.363.363v.954a.327.327,0,0,1-.1.254.363.363,0,0,1-.259.1h-4.755v2.561h4.464a.363.363,0,0,1,.259.1.327.327,0,0,1,.1.254v.908a.327.327,0,0,1-.1.254.363.363,0,0,1-.259.1h-4.446v2.648h4.882a.368.368,0,0,1,.259.1.354.354,0,0,1,.1.263v.954a.327.327,0,0,1-.1.254.363.363,0,0,1-.259.1h-6.5A.341.341,0,0,1,111.97,259.811Z" transform="translate(-30.122 -105.402)" fill="#35a8e0"/><path d="M133.07,259.8a.345.345,0,0,1-.1-.245v-9.423a.363.363,0,0,1,.1-.259.327.327,0,0,1,.254-.1h3.751a4.264,4.264,0,0,1,2.775.827,2.87,2.87,0,0,1,1,2.348,2.97,2.97,0,0,1-.513,1.771,2.861,2.861,0,0,1-1.449,1.058L141,259.467a.314.314,0,0,1,.045.159.286.286,0,0,1-.1.218.318.318,0,0,1-.209.086h-1.317a.541.541,0,0,1-.354-.1.94.94,0,0,1-.227-.286l-1.866-3.433h-1.994v3.474a.34.34,0,0,1-.1.245.318.318,0,0,1-.25.1h-1.317A.341.341,0,0,1,133.07,259.8Zm3.955-5.354a1.93,1.93,0,0,0,1.308-.391,1.421,1.421,0,0,0,.454-1.131,1.462,1.462,0,0,0-.454-1.14,1.867,1.867,0,0,0-1.308-.409h-2.044v3.07Z" transform="translate(-41.64 -105.394)" fill="#35a8e0"/><path d="M155.8,259.811a.327.327,0,0,1-.1-.245v-9.437a.331.331,0,0,1,.1-.254.345.345,0,0,1,.245-.1h1.362a.322.322,0,0,1,.345.35v9.437a.336.336,0,0,1-.345.35h-1.362A.336.336,0,0,1,155.8,259.811Z" transform="translate(-54.048 -105.402)" fill="#35a8e0"/><path d="M166.926,258.894a3.984,3.984,0,0,1-1.158-2.97v-2.475a3.969,3.969,0,0,1,1.185-2.952,5.032,5.032,0,0,1,6.09,0,3.955,3.955,0,0,1,1.194,2.952c0,.559.027.976.027,1.244s0,.672-.027,1.231a4.036,4.036,0,0,1-1.172,2.97A5.218,5.218,0,0,1,166.926,258.894Zm4.618-1.253a2.584,2.584,0,0,0,.622-1.789q.027-.863.027-1.172t-.027-1.172a2.588,2.588,0,0,0-.622-1.789,2.321,2.321,0,0,0-3.084,0,2.588,2.588,0,0,0-.622,1.789v2.343a2.6,2.6,0,0,0,.613,1.789,2.057,2.057,0,0,0,1.544.586A2.08,2.08,0,0,0,171.544,257.64Z" transform="translate(-59.543 -105.234)" fill="#35a8e0"/><path d="M190.034,259.8a.332.332,0,0,1-.1-.245v-9.423a.363.363,0,0,1,.1-.259.327.327,0,0,1,.254-.1h3.769a4.255,4.255,0,0,1,2.775.827,2.87,2.87,0,0,1,1,2.348,2.938,2.938,0,0,1-.513,1.771,2.861,2.861,0,0,1-1.449,1.058l2.116,3.692a.359.359,0,0,1,.041.159.286.286,0,0,1-.1.218.309.309,0,0,1-.209.086H196.4a.541.541,0,0,1-.354-.1.871.871,0,0,1-.222-.286l-1.871-3.433h-2.012v3.474a.354.354,0,0,1-.091.245.336.336,0,0,1-.254.1h-1.317a.331.331,0,0,1-.245-.127Zm3.951-5.354a1.93,1.93,0,0,0,1.308-.391,1.421,1.421,0,0,0,.454-1.131,1.462,1.462,0,0,0-.454-1.14,1.867,1.867,0,0,0-1.308-.409h-2.044v3.07Z" transform="translate(-72.733 -105.394)" fill="#35a8e0"/><path d="M221.8,259.522a3.315,3.315,0,0,1-1.4-1.031,2.43,2.43,0,0,1-.509-1.362.309.309,0,0,1,.3-.3h1.29a.454.454,0,0,1,.268.068.654.654,0,0,1,.182.209,1.471,1.471,0,0,0,.668.827,2.6,2.6,0,0,0,1.417.332,2.857,2.857,0,0,0,1.549-.341,1.076,1.076,0,0,0,.522-.949.908.908,0,0,0-.268-.663,2.2,2.2,0,0,0-.795-.454c-.354-.127-.876-.282-1.571-.454a6.049,6.049,0,0,1-2.5-1.081,2.37,2.37,0,0,1-.79-1.916,2.5,2.5,0,0,1,.454-1.49,3.025,3.025,0,0,1,1.317-1.031,5,5,0,0,1,2-.372,4.673,4.673,0,0,1,2.057.418,3.479,3.479,0,0,1,1.321,1.049,2.3,2.3,0,0,1,.486,1.253.3.3,0,0,1-.086.218.313.313,0,0,1-.218.086h-1.362a.418.418,0,0,1-.422-.277,1.149,1.149,0,0,0-.577-.772,2.235,2.235,0,0,0-1.217-.313,2.3,2.3,0,0,0-1.276.3,1,1,0,0,0-.454.886.958.958,0,0,0,.232.663,1.93,1.93,0,0,0,.727.454,12.111,12.111,0,0,0,1.444.454,9.822,9.822,0,0,1,2.03.649,2.725,2.725,0,0,1,1.126.908,2.516,2.516,0,0,1,.359,1.4,2.643,2.643,0,0,1-.513,1.617,3.179,3.179,0,0,1-1.449,1.049,5.93,5.93,0,0,1-2.148.363A5.722,5.722,0,0,1,221.8,259.522Z" transform="translate(-89.088 -105.253)" fill="#35a8e0"/><path d="M243.4,258.894a3.972,3.972,0,0,1-1.158-2.97v-2.475a3.969,3.969,0,0,1,1.185-2.952,5.032,5.032,0,0,1,6.09,0,3.955,3.955,0,0,1,1.194,2.952c0,.559.027.976.027,1.244s0,.672-.027,1.231a4.06,4.06,0,0,1-1.172,2.97A5.218,5.218,0,0,1,243.4,258.894Zm4.637-1.253a2.584,2.584,0,0,0,.622-1.789q.027-.863.027-1.172t-.027-1.172a2.589,2.589,0,0,0-.622-1.789,2.08,2.08,0,0,0-1.549-.586,2.057,2.057,0,0,0-1.535.586,2.589,2.589,0,0,0-.622,1.789v2.343a2.6,2.6,0,0,0,.613,1.789,2.057,2.057,0,0,0,1.544.586,2.08,2.08,0,0,0,1.549-.586Z" transform="translate(-101.286 -105.234)" fill="#35a8e0"/><path d="M266.5,259.811a.345.345,0,0,1-.1-.245v-9.437a.336.336,0,0,1,.35-.35h1.362a.327.327,0,0,1,.35.35v8.061h4.569a.345.345,0,0,1,.259.1.354.354,0,0,1,.1.259v1.013a.327.327,0,0,1-.1.254.359.359,0,0,1-.259.1h-6.281A.341.341,0,0,1,266.5,259.811Z" transform="translate(-114.476 -105.402)" fill="#35a8e0"/><path d="M286.585,259.046a3.912,3.912,0,0,1-1.085-3.029v-5.9a.364.364,0,0,1,.091-.259.336.336,0,0,1,.254-.1h1.317a.336.336,0,0,1,.254.1.364.364,0,0,1,.1.259v5.9a2.47,2.47,0,0,0,.549,1.748,2.371,2.371,0,0,0,3.12,0,2.511,2.511,0,0,0,.54-1.748v-5.9a.368.368,0,0,1,.1-.259.354.354,0,0,1,.263-.1h1.3a.318.318,0,0,1,.25.1.363.363,0,0,1,.1.259v5.9a3.939,3.939,0,0,1-1.076,3.029,5.113,5.113,0,0,1-6.072,0Z" transform="translate(-124.902 -105.386)" fill="#35a8e0"/><path d="M311.064,259.811a.327.327,0,0,1-.1-.245v-8h-2.679a.336.336,0,0,1-.245-.1.332.332,0,0,1-.1-.245v-1.072a.363.363,0,0,1,.091-.259.336.336,0,0,1,.254-.1h7.4a.354.354,0,0,1,.259.1.349.349,0,0,1,.1.259v1.072a.331.331,0,0,1-.1.245.354.354,0,0,1-.259.1h-2.666v8a.327.327,0,0,1-.1.245.354.354,0,0,1-.263.1h-1.331A.336.336,0,0,1,311.064,259.811Z" transform="translate(-137.152 -105.403)" fill="#35a8e0"/><path d="M330.349,259.811a.327.327,0,0,1-.1-.245v-9.437a.332.332,0,0,1,.1-.254.345.345,0,0,1,.245-.1h1.362a.345.345,0,0,1,.254.1.363.363,0,0,1,.091.254v9.437a.354.354,0,0,1-.091.245.336.336,0,0,1-.254.1h-1.362A.336.336,0,0,1,330.349,259.811Z" transform="translate(-149.33 -105.402)" fill="#35a8e0"/><path d="M341.476,258.894a3.972,3.972,0,0,1-1.158-2.97v-2.475A3.969,3.969,0,0,1,341.5,250.5a5.032,5.032,0,0,1,6.09,0,3.955,3.955,0,0,1,1.194,2.952c0,.559.027.976.027,1.244s0,.672-.027,1.231a4.06,4.06,0,0,1-1.172,2.97,5.218,5.218,0,0,1-6.14,0Zm4.6-1.253a2.584,2.584,0,0,0,.622-1.789q.027-.863.027-1.172t-.027-1.172a2.589,2.589,0,0,0-.622-1.789,2.321,2.321,0,0,0-3.083,0,2.589,2.589,0,0,0-.622,1.789v2.343a2.6,2.6,0,0,0,.613,1.789,2.057,2.057,0,0,0,1.544.586A2.08,2.08,0,0,0,346.076,257.64Z" transform="translate(-154.825 -105.234)" fill="#35a8e0"/><path d="M364.58,259.806a.345.345,0,0,1-.1-.245v-9.423a.364.364,0,0,1,.1-.259.327.327,0,0,1,.254-.1h1.113a.4.4,0,0,1,.259.068.794.794,0,0,1,.163.163l4.169,6.485v-6.358a.363.363,0,0,1,.091-.259.336.336,0,0,1,.254-.1H372.1a.354.354,0,0,1,.259.1.35.35,0,0,1,.1.259v9.414a.341.341,0,0,1-.1.259.336.336,0,0,1-.245.1h-1.131a.509.509,0,0,1-.418-.232l-4.155-6.358v6.226a.327.327,0,0,1-.1.254.368.368,0,0,1-.263.1h-1.213A.341.341,0,0,1,364.58,259.806Z" transform="translate(-168.016 -105.397)" fill="#35a8e0"/><path d="M388.862,259.522a3.315,3.315,0,0,1-1.4-1.031,2.43,2.43,0,0,1-.509-1.362.3.3,0,0,1,.086-.213.3.3,0,0,1,.218-.091h1.29a.454.454,0,0,1,.268.068.653.653,0,0,1,.182.209,1.485,1.485,0,0,0,.663.827,2.625,2.625,0,0,0,1.421.332,2.857,2.857,0,0,0,1.549-.341,1.076,1.076,0,0,0,.522-.949.908.908,0,0,0-.268-.663,2.189,2.189,0,0,0-.8-.454,16.266,16.266,0,0,0-1.571-.454,6.026,6.026,0,0,1-2.493-1.081,2.371,2.371,0,0,1-.79-1.916,2.525,2.525,0,0,1,.454-1.49A3.079,3.079,0,0,1,389,249.88a5,5,0,0,1,2.007-.372,4.673,4.673,0,0,1,2.057.418,3.479,3.479,0,0,1,1.322,1.049,2.3,2.3,0,0,1,.486,1.253.3.3,0,0,1-.086.218.313.313,0,0,1-.218.086H393.2a.418.418,0,0,1-.422-.277,1.167,1.167,0,0,0-.577-.772,2.234,2.234,0,0,0-1.217-.313,2.3,2.3,0,0,0-1.276.3.99.99,0,0,0-.454.886.958.958,0,0,0,.232.663,1.989,1.989,0,0,0,.731.454,12.111,12.111,0,0,0,1.444.454,9.913,9.913,0,0,1,2.03.649,2.675,2.675,0,0,1,1.122.908,2.515,2.515,0,0,1,.363,1.4,2.643,2.643,0,0,1-.513,1.617,3.207,3.207,0,0,1-1.449,1.049,5.931,5.931,0,0,1-2.148.363A5.722,5.722,0,0,1,388.862,259.522Z" transform="translate(-180.282 -105.253)" fill="#35a8e0"/><rect width="7.993" height="7.993" transform="translate(122.546 92.761)" fill="#35a8e0"/><rect width="7.993" height="7.993" transform="translate(131.801 92.761)" fill="#fff"/><rect width="7.993" height="7.993" transform="translate(131.801 83.402)" fill="#fff"/><rect width="7.993" height="7.993" transform="translate(141.056 92.761)" fill="#fff"/><rect width="7.993" height="7.993" transform="translate(141.056 66.05)" fill="#fff"/><rect width="7.993" height="7.993" transform="translate(131.801 56.69)" fill="#9ccaee"/><rect width="7.993" height="15.985" transform="translate(150.311 84.769)" fill="#fff"/><rect width="7.993" height="15.985" transform="translate(113.295 84.769)" fill="#9ccaee"/><rect width="7.993" height="15.985" transform="translate(141.056 75.409)" fill="#9ccaee"/><rect width="7.993" height="15.985" transform="translate(131.801 66.05)" fill="#35a8e0"/><rect width="7.993" height="15.985" transform="translate(122.546 75.409)" fill="#9ccaee"/></g></svg>