<?xml version="1.0" encoding="UTF-8"?><svg xmlns="http://www.w3.org/2000/svg" viewBox="0 0 504.88 303.91"><defs><style>.d{fill:#fff;}.e{fill:#9dcbef;}.f{fill:#36a9e1;}</style></defs><g id="a"/><g id="b"><g id="c"><g><g><path class="d" d="M.95,241.38c-.64-.63-.95-1.44-.95-2.42v-95.67c0-1.07,.32-1.93,.95-2.56,.63-.63,1.44-.95,2.42-.95H63.88c.98,0,1.78,.32,2.42,.95,.63,.64,.95,1.49,.95,2.56v5.57c0,.98-.29,1.78-.88,2.42-.59,.64-1.42,.95-2.49,.95H14.07v32.09H60.66c.98,0,1.78,.32,2.42,.95,.63,.64,.95,1.49,.95,2.56v5.42c0,.98-.32,1.78-.95,2.42-.64,.64-1.44,.95-2.42,.95H14.07v33.26h50.99c1.07,0,1.9,.29,2.49,.88s.88,1.42,.88,2.49v5.71c0,.98-.32,1.78-.95,2.42-.64,.64-1.44,.95-2.42,.95H3.37c-.98,0-1.78-.32-2.42-.95Z"/><path class="d" d="M89.45,241.38c-.64-.63-.95-1.44-.95-2.42v-97.29c0-.98,.32-1.78,.95-2.42,.63-.63,1.44-.95,2.42-.95h6.89c.98,0,1.78,.32,2.42,.95,.63,.64,.95,1.44,.95,2.42v97.29c0,.98-.32,1.78-.95,2.42s-1.44,.95-2.42,.95h-6.89c-.98,0-1.78-.32-2.42-.95Z"/><path class="d" d="M131.79,234.49c-6.01-6.2-9.3-14.67-9.89-25.42l-.15-4.98,.15-4.83c.68-10.55,4.03-18.95,10.04-25.2,6.01-6.25,13.94-9.38,23.81-9.38,10.84,0,19.24,3.44,25.2,10.33,5.96,6.89,8.94,16.19,8.94,27.91v2.49c0,.98-.32,1.78-.95,2.42s-1.44,.95-2.42,.95h-50.69v1.32c.29,6.35,2.22,11.75,5.79,16.19,3.56,4.45,8.28,6.67,14.14,6.67,4.49,0,8.18-.9,11.06-2.71,2.88-1.81,5.01-3.69,6.37-5.64,.88-1.17,1.54-1.88,1.98-2.12,.44-.24,1.25-.37,2.42-.37h7.18c.88,0,1.61,.24,2.2,.73,.59,.49,.88,1.17,.88,2.05,0,2.15-1.34,4.74-4.03,7.76-2.69,3.03-6.45,5.64-11.28,7.84-4.83,2.2-10.38,3.3-16.63,3.3-10.06,0-18.09-3.1-24.1-9.3Zm44.17-35.82v-.44c0-6.74-1.83-12.23-5.49-16.48-3.66-4.25-8.57-6.37-14.72-6.37s-11.01,2.12-14.58,6.37c-3.57,4.25-5.35,9.74-5.35,16.48v.44h40.15Z"/><path class="d" d="M227.39,238.67l-27.11-67.98-.29-1.47c0-.88,.29-1.61,.88-2.2s1.32-.88,2.2-.88h7.03c1.66,0,2.88,.83,3.66,2.49l22.27,57.73,22.27-57.73c.88-1.66,2.05-2.49,3.52-2.49h7.18c.78,0,1.49,.29,2.12,.88,.63,.59,.95,1.32,.95,2.2l-.29,1.47-27.25,67.98c-1.08,2.44-2.88,3.66-5.42,3.66h-6.3c-2.54,0-4.35-1.22-5.42-3.66Z"/><path class="d" d="M293.91,240.86c-4.1-1.95-7.35-4.62-9.74-7.98-2.39-3.37-3.59-7.11-3.59-11.21,0-6.45,2.66-11.74,7.98-15.9,5.32-4.15,12.53-6.86,21.61-8.13l21.83-3.08v-4.25c0-9.96-5.71-14.95-17.14-14.95-4.3,0-7.82,.9-10.55,2.71-2.74,1.81-4.79,3.93-6.15,6.37-.29,.88-.66,1.51-1.1,1.9-.44,.39-1.05,.59-1.83,.59h-6.3c-.88,0-1.64-.32-2.27-.95-.64-.63-.95-1.39-.95-2.27,.1-2.34,1.2-5,3.3-7.98,2.1-2.98,5.35-5.57,9.74-7.76,4.39-2.2,9.82-3.3,16.26-3.3,10.94,0,18.8,2.56,23.59,7.69,4.78,5.13,7.18,11.5,7.18,19.12v47.47c0,.98-.32,1.78-.95,2.42-.64,.64-1.44,.95-2.42,.95h-6.74c-.98,0-1.78-.32-2.42-.95-.64-.63-.95-1.44-.95-2.42v-6.3c-2.15,3.13-5.27,5.76-9.37,7.91-4.1,2.15-9.33,3.22-15.68,3.22-4.79,0-9.23-.98-13.33-2.93Zm32.01-14.29c4.05-4.15,6.08-10.13,6.08-17.95v-4.1l-16.99,2.49c-6.94,.98-12.16,2.62-15.68,4.91-3.52,2.3-5.27,5.2-5.27,8.72,0,3.91,1.61,6.91,4.83,9.01,3.22,2.1,7.03,3.15,11.43,3.15,6.35,0,11.55-2.07,15.6-6.23Z"/><path class="d" d="M374.2,216.54v-38.68h-11.43c-.98,0-1.78-.32-2.42-.95-.64-.63-.95-1.44-.95-2.42v-4.98c0-.98,.32-1.78,.95-2.42,.63-.63,1.44-.95,2.42-.95h11.43v-24.47c0-.98,.32-1.78,.95-2.42s1.44-.95,2.42-.95h6.89c.98,0,1.78,.32,2.42,.95,.63,.64,.95,1.44,.95,2.42v24.47h18.17c.98,0,1.78,.32,2.42,.95,.63,.64,.95,1.44,.95,2.42v4.98c0,.98-.32,1.78-.95,2.42s-1.44,.95-2.42,.95h-18.17v37.65c0,4.89,.83,8.57,2.49,11.06,1.66,2.49,4.39,3.74,8.2,3.74h8.94c.97,0,1.78,.32,2.42,.95,.63,.64,.95,1.44,.95,2.42v5.27c0,.98-.32,1.78-.95,2.42-.64,.64-1.44,.95-2.42,.95h-10.11c-15.43,0-23.15-8.59-23.15-25.79Z"/><path class="d" d="M432.73,234.49c-6.01-6.2-9.3-14.67-9.89-25.42l-.15-4.98,.15-4.83c.68-10.55,4.03-18.95,10.04-25.2,6.01-6.25,13.94-9.38,23.81-9.38,10.84,0,19.24,3.44,25.2,10.33,5.96,6.89,8.94,16.19,8.94,27.91v2.49c0,.98-.32,1.78-.95,2.42s-1.44,.95-2.42,.95h-50.69v1.32c.29,6.35,2.22,11.75,5.79,16.19,3.56,4.45,8.28,6.67,14.14,6.67,4.49,0,8.18-.9,11.06-2.71,2.88-1.81,5-3.69,6.37-5.64,.88-1.17,1.54-1.88,1.98-2.12,.44-.24,1.25-.37,2.42-.37h7.18c.88,0,1.61,.24,2.2,.73,.59,.49,.88,1.17,.88,2.05,0,2.15-1.34,4.74-4.03,7.76-2.69,3.03-6.45,5.64-11.28,7.84-4.83,2.2-10.38,3.3-16.63,3.3-10.06,0-18.09-3.1-24.1-9.3Zm44.17-35.82v-.44c0-6.74-1.83-12.23-5.49-16.48-3.66-4.25-8.57-6.37-14.72-6.37s-11.01,2.12-14.58,6.37c-3.57,4.25-5.35,9.74-5.35,16.48v.44h40.15Z"/></g><g><path class="f" d="M.31,303.15c-.21-.21-.31-.46-.31-.76v-29.28c0-.33,.1-.59,.31-.79,.21-.2,.46-.29,.76-.29H5.3c.33,0,.59,.1,.79,.29,.2,.19,.29,.46,.29,.79v29.28c0,.3-.1,.56-.29,.76-.2,.21-.46,.31-.79,.31H1.08c-.3,0-.55-.1-.76-.31Z"/><path class="f" d="M15.54,303.15c-.21-.21-.31-.46-.31-.76v-29.23c0-.33,.1-.6,.29-.81,.19-.21,.46-.31,.79-.31h3.46c.36,0,.63,.07,.81,.2,.18,.14,.34,.31,.49,.52l12.93,20.12v-19.71c0-.33,.1-.6,.29-.81,.19-.21,.45-.31,.79-.31h3.77c.33,0,.6,.1,.81,.31,.21,.21,.31,.48,.31,.81v29.19c0,.33-.11,.6-.31,.81s-.47,.31-.76,.31h-3.5c-.51,0-.94-.24-1.3-.72l-12.89-19.67v19.31c0,.33-.11,.59-.31,.79-.21,.2-.48,.29-.81,.29h-3.77c-.3,0-.55-.1-.76-.31Z"/><path class="f" d="M56,303.15c-.21-.21-.31-.46-.31-.76v-24.83h-8.31c-.3,0-.55-.11-.76-.31s-.32-.46-.32-.76v-3.32c0-.33,.1-.6,.29-.81s.46-.31,.79-.31h22.9c.33,0,.6,.1,.81,.31,.21,.21,.31,.48,.31,.81v3.32c0,.3-.1,.55-.31,.76s-.48,.31-.81,.31h-8.26v24.83c0,.3-.11,.56-.31,.76s-.48,.31-.81,.31h-4.13c-.3,0-.56-.1-.76-.31Z"/><path class="f" d="M78.05,303.15c-.21-.21-.31-.46-.31-.76v-29.23c0-.33,.1-.6,.29-.81,.2-.21,.46-.31,.79-.31h19.76c.33,0,.6,.1,.81,.31s.31,.48,.31,.81v2.96c0,.33-.1,.59-.31,.79-.21,.2-.48,.29-.81,.29h-14.78v7.95h13.79c.33,0,.6,.1,.81,.29,.21,.19,.31,.46,.31,.79v2.78c0,.33-.11,.59-.31,.79-.21,.19-.48,.29-.81,.29h-13.79v8.22h15.14c.33,0,.6,.1,.81,.31,.21,.21,.31,.48,.31,.81v2.96c0,.33-.11,.59-.31,.79-.21,.2-.48,.29-.81,.29h-20.12c-.3,0-.56-.1-.76-.31Z"/><path class="f" d="M107.77,303.15c-.21-.21-.31-.46-.31-.76v-29.23c0-.33,.1-.6,.29-.81,.2-.21,.46-.31,.79-.31h11.63c3.65,0,6.52,.85,8.6,2.56s3.12,4.13,3.12,7.27c0,2.19-.53,4.02-1.59,5.5-1.06,1.48-2.54,2.55-4.42,3.21l6.56,11.45c.09,.18,.14,.34,.14,.49,0,.27-.1,.49-.29,.67-.2,.18-.41,.27-.65,.27h-4.09c-.48,0-.85-.1-1.1-.31-.25-.21-.49-.51-.7-.9l-5.79-10.64h-6.24v10.78c0,.3-.1,.56-.29,.76-.2,.21-.46,.31-.79,.31h-4.09c-.3,0-.56-.1-.76-.31Zm12.26-16.62c1.8,0,3.15-.4,4.06-1.21,.91-.81,1.37-1.98,1.37-3.5s-.46-2.71-1.37-3.55-2.27-1.26-4.06-1.26h-6.33v9.52h6.33Z"/><path class="f" d="M139.79,303.15c-.21-.21-.31-.46-.31-.76v-29.28c0-.33,.1-.59,.31-.79,.21-.2,.46-.29,.76-.29h4.22c.33,0,.59,.1,.79,.29,.2,.19,.29,.46,.29,.79v29.28c0,.3-.1,.56-.29,.76-.2,.21-.46,.31-.79,.31h-4.22c-.3,0-.55-.1-.76-.31Z"/><path class="f" d="M157.26,300.81c-2.27-2.06-3.47-5.13-3.59-9.21-.03-.87-.05-2.14-.05-3.82s.01-2.99,.05-3.86c.12-3.98,1.35-7.03,3.68-9.16,2.34-2.13,5.48-3.19,9.43-3.19s7.1,1.06,9.45,3.19c2.35,2.13,3.59,5.18,3.71,9.16,.06,1.74,.09,3.02,.09,3.86s-.03,2.08-.09,3.82c-.15,4.07-1.36,7.14-3.64,9.21-2.27,2.07-5.45,3.1-9.52,3.1s-7.25-1.03-9.52-3.1Zm14.33-3.88c1.2-1.21,1.84-3.06,1.93-5.55,.06-1.8,.09-3.01,.09-3.64,0-.69-.03-1.9-.09-3.64-.09-2.49-.73-4.33-1.93-5.55-1.2-1.21-2.8-1.82-4.81-1.82s-3.56,.61-4.76,1.82c-1.2,1.21-1.84,3.06-1.93,5.55-.03,.87-.04,2.08-.04,3.64s.01,2.74,.04,3.64c.09,2.49,.73,4.33,1.91,5.55,1.18,1.21,2.78,1.82,4.78,1.82s3.61-.61,4.81-1.82Z"/><path class="f" d="M188.02,303.15c-.21-.21-.31-.46-.31-.76v-29.23c0-.33,.1-.6,.29-.81,.2-.21,.46-.31,.79-.31h11.63c3.65,0,6.52,.85,8.6,2.56s3.12,4.13,3.12,7.27c0,2.19-.53,4.02-1.59,5.5-1.06,1.48-2.54,2.55-4.42,3.21l6.56,11.45c.09,.18,.14,.34,.14,.49,0,.27-.1,.49-.29,.67-.2,.18-.41,.27-.65,.27h-4.09c-.48,0-.85-.1-1.1-.31-.25-.21-.49-.51-.7-.9l-5.79-10.64h-6.24v10.78c0,.3-.1,.56-.29,.76-.2,.21-.46,.31-.79,.31h-4.09c-.3,0-.56-.1-.76-.31Zm12.26-16.62c1.8,0,3.15-.4,4.06-1.21,.91-.81,1.37-1.98,1.37-3.5s-.46-2.71-1.37-3.55-2.27-1.26-4.06-1.26h-6.33v9.52h6.33Z"/><path class="f" d="M235.85,302.7c-1.92-.81-3.37-1.87-4.36-3.19-.99-1.32-1.51-2.74-1.57-4.26,0-.27,.09-.5,.27-.67s.4-.27,.67-.27h4c.36,0,.64,.07,.83,.2,.19,.14,.38,.35,.56,.65,.3,1.02,.99,1.87,2.06,2.56,1.08,.69,2.55,1.03,4.4,1.03,2.13,0,3.73-.35,4.8-1.06,1.08-.7,1.62-1.68,1.62-2.94,0-.84-.28-1.53-.83-2.06s-1.38-1-2.47-1.39c-1.09-.39-2.72-.87-4.87-1.44-3.53-.84-6.11-1.95-7.75-3.34-1.63-1.39-2.45-3.37-2.45-5.95,0-1.74,.47-3.28,1.42-4.62,.94-1.35,2.3-2.41,4.09-3.19s3.85-1.17,6.22-1.17,4.58,.43,6.38,1.3c1.8,.87,3.16,1.95,4.11,3.26,.94,1.3,1.45,2.6,1.51,3.88,0,.27-.09,.5-.27,.67s-.4,.27-.67,.27h-4.18c-.63,0-1.06-.28-1.3-.85-.18-.96-.78-1.76-1.8-2.4s-2.27-.97-3.77-.97c-1.68,0-2.99,.31-3.95,.94s-1.44,1.54-1.44,2.74c0,.84,.24,1.53,.72,2.06s1.24,1.02,2.27,1.44c1.03,.42,2.52,.88,4.47,1.39,2.63,.6,4.74,1.27,6.31,2.02,1.57,.75,2.73,1.69,3.48,2.83,.75,1.14,1.12,2.59,1.12,4.35,0,1.92-.53,3.59-1.59,5.01-1.06,1.42-2.56,2.51-4.49,3.25-1.93,.75-4.15,1.12-6.67,1.12-2.67,0-4.96-.4-6.87-1.21Z"/><path class="f" d="M264.99,300.81c-2.28-2.06-3.47-5.13-3.59-9.21-.03-.87-.04-2.14-.04-3.82s.01-2.99,.04-3.86c.12-3.98,1.35-7.03,3.68-9.16s5.48-3.19,9.43-3.19,7.1,1.06,9.45,3.19c2.35,2.13,3.59,5.18,3.7,9.16,.06,1.74,.09,3.02,.09,3.86s-.03,2.08-.09,3.82c-.15,4.07-1.36,7.14-3.64,9.21-2.28,2.07-5.45,3.1-9.52,3.1s-7.25-1.03-9.52-3.1Zm14.32-3.88c1.2-1.21,1.84-3.06,1.93-5.55,.06-1.8,.09-3.01,.09-3.64,0-.69-.03-1.9-.09-3.64-.09-2.49-.73-4.33-1.93-5.55-1.2-1.21-2.8-1.82-4.8-1.82s-3.56,.61-4.76,1.82c-1.2,1.21-1.84,3.06-1.93,5.55-.03,.87-.05,2.08-.05,3.64s.01,2.74,.05,3.64c.09,2.49,.73,4.33,1.91,5.55,1.18,1.21,2.78,1.82,4.78,1.82s3.61-.61,4.8-1.82Z"/><path class="f" d="M295.75,303.15c-.21-.21-.31-.46-.31-.76v-29.28c0-.33,.1-.59,.31-.79,.21-.2,.46-.29,.76-.29h4.18c.33,0,.59,.1,.79,.29,.2,.19,.29,.46,.29,.79v25.01h14.23c.33,0,.6,.11,.81,.31,.21,.21,.31,.48,.31,.81v3.14c0,.33-.11,.59-.31,.79-.21,.2-.48,.29-.81,.29h-19.49c-.3,0-.56-.1-.76-.31Z"/><path class="f" d="M325.7,300.81c-2.25-2.06-3.37-5.19-3.37-9.38v-18.28c0-.33,.1-.6,.29-.81,.2-.21,.46-.31,.79-.31h4.09c.33,0,.59,.1,.79,.31,.19,.21,.29,.48,.29,.81v18.28c0,2.4,.57,4.2,1.71,5.41,1.14,1.21,2.75,1.82,4.85,1.82s3.7-.6,4.83-1.82c1.12-1.21,1.68-3.01,1.68-5.41v-18.28c0-.33,.11-.6,.31-.81,.21-.21,.48-.31,.81-.31h4.04c.33,0,.59,.1,.79,.31,.2,.21,.29,.48,.29,.81v18.28c0,4.19-1.11,7.32-3.35,9.38-2.23,2.07-5.36,3.1-9.41,3.1s-7.18-1.03-9.43-3.1Z"/><path class="f" d="M363.65,303.15c-.21-.21-.31-.46-.31-.76v-24.83h-8.31c-.3,0-.55-.11-.76-.31-.21-.21-.31-.46-.31-.76v-3.32c0-.33,.1-.6,.29-.81,.19-.21,.46-.31,.79-.31h22.9c.33,0,.6,.1,.81,.31s.31,.48,.31,.81v3.32c0,.3-.1,.55-.31,.76-.21,.21-.48,.31-.81,.31h-8.26v24.83c0,.3-.11,.56-.31,.76s-.48,.31-.81,.31h-4.13c-.3,0-.55-.1-.76-.31Z"/><path class="f" d="M385.7,303.15c-.21-.21-.31-.46-.31-.76v-29.28c0-.33,.1-.59,.31-.79,.21-.2,.46-.29,.76-.29h4.22c.33,0,.59,.1,.79,.29s.29,.46,.29,.79v29.28c0,.3-.1,.56-.29,.76-.2,.21-.46,.31-.79,.31h-4.22c-.3,0-.56-.1-.76-.31Z"/><path class="f" d="M403.16,300.81c-2.28-2.06-3.47-5.13-3.59-9.21-.03-.87-.05-2.14-.05-3.82s.01-2.99,.05-3.86c.12-3.98,1.35-7.03,3.68-9.16,2.34-2.13,5.48-3.19,9.43-3.19s7.1,1.06,9.45,3.19c2.35,2.13,3.59,5.18,3.71,9.16,.06,1.74,.09,3.02,.09,3.86s-.03,2.08-.09,3.82c-.15,4.07-1.36,7.14-3.64,9.21-2.27,2.07-5.45,3.1-9.52,3.1s-7.25-1.03-9.52-3.1Zm14.33-3.88c1.2-1.21,1.84-3.06,1.93-5.55,.06-1.8,.09-3.01,.09-3.64,0-.69-.03-1.9-.09-3.64-.09-2.49-.73-4.33-1.93-5.55-1.2-1.21-2.8-1.82-4.81-1.82s-3.56,.61-4.76,1.82c-1.2,1.21-1.84,3.06-1.93,5.55-.03,.87-.05,2.08-.05,3.64s.02,2.74,.05,3.64c.09,2.49,.73,4.33,1.91,5.55,1.18,1.21,2.78,1.82,4.78,1.82s3.61-.61,4.81-1.82Z"/><path class="f" d="M433.92,303.15c-.21-.21-.31-.46-.31-.76v-29.23c0-.33,.1-.6,.29-.81,.19-.21,.45-.31,.79-.31h3.46c.36,0,.63,.07,.81,.2,.18,.14,.35,.31,.5,.52l12.93,20.12v-19.71c0-.33,.1-.6,.29-.81,.2-.21,.46-.31,.79-.31h3.77c.33,0,.6,.1,.81,.31s.31,.48,.31,.81v29.19c0,.33-.1,.6-.31,.81-.21,.21-.46,.31-.76,.31h-3.5c-.51,0-.94-.24-1.3-.72l-12.89-19.67v19.31c0,.33-.11,.59-.31,.79-.21,.2-.48,.29-.81,.29h-3.77c-.3,0-.56-.1-.76-.31Z"/><path class="f" d="M471.2,302.7c-1.92-.81-3.37-1.87-4.36-3.19-.99-1.32-1.51-2.74-1.57-4.26,0-.27,.09-.5,.27-.67s.4-.27,.67-.27h4c.36,0,.64,.07,.83,.2,.19,.14,.38,.35,.56,.65,.3,1.02,.99,1.87,2.06,2.56,1.08,.69,2.55,1.03,4.4,1.03,2.13,0,3.73-.35,4.81-1.06,1.08-.7,1.62-1.68,1.62-2.94,0-.84-.28-1.53-.83-2.06-.56-.54-1.38-1-2.47-1.39-1.09-.39-2.72-.87-4.87-1.44-3.53-.84-6.11-1.95-7.75-3.34-1.63-1.39-2.45-3.37-2.45-5.95,0-1.74,.47-3.28,1.41-4.62s2.3-2.41,4.09-3.19,3.86-1.17,6.22-1.17,4.58,.43,6.38,1.3c1.8,.87,3.16,1.95,4.11,3.26,.94,1.3,1.44,2.6,1.5,3.88,0,.27-.09,.5-.27,.67-.18,.18-.4,.27-.67,.27h-4.18c-.63,0-1.06-.28-1.3-.85-.18-.96-.78-1.76-1.8-2.4s-2.27-.97-3.77-.97c-1.68,0-2.99,.31-3.95,.94-.96,.63-1.44,1.54-1.44,2.74,0,.84,.24,1.53,.72,2.06,.48,.54,1.24,1.02,2.27,1.44,1.03,.42,2.52,.88,4.47,1.39,2.63,.6,4.74,1.27,6.31,2.02,1.57,.75,2.73,1.69,3.48,2.83,.75,1.14,1.12,2.59,1.12,4.35,0,1.92-.53,3.59-1.59,5.01-1.06,1.42-2.56,2.51-4.49,3.25-1.93,.75-4.15,1.12-6.67,1.12-2.67,0-4.96-.4-6.87-1.21Z"/></g><g><rect class="f" x="204.31" y="111.89" width="24.79" height="24.79"/><rect class="d" x="233.01" y="111.89" width="24.79" height="24.79"/><rect class="d" x="233.01" y="82.86" width="24.79" height="24.79"/><rect class="d" x="261.72" y="111.89" width="24.79" height="24.79"/><rect class="d" x="261.72" y="29.03" width="24.79" height="24.79"/><rect class="e" x="233.01" width="24.79" height="24.79"/><rect class="d" x="290.43" y="87.1" width="24.79" height="49.59"/><rect class="e" x="175.6" y="87.1" width="24.79" height="49.59"/><rect class="e" x="261.72" y="58.07" width="24.79" height="49.59"/><rect class="f" x="233.01" y="29.03" width="24.79" height="49.59"/><rect class="e" x="204.31" y="58.07" width="24.79" height="49.59"/></g></g><path class="d" d="M493.57,147.72c1.9,0,3.76,.49,5.57,1.46,1.81,.98,3.22,2.37,4.23,4.19s1.52,3.71,1.52,5.68-.5,3.83-1.49,5.63-2.39,3.2-4.19,4.19c-1.8,1-3.67,1.49-5.63,1.49s-3.84-.5-5.63-1.49c-1.8-1-3.19-2.39-4.19-4.19s-1.5-3.68-1.5-5.63,.51-3.86,1.52-5.68,2.43-3.21,4.24-4.19,3.67-1.46,5.57-1.46Zm0,1.88c-1.59,0-3.14,.41-4.64,1.22-1.51,.82-2.68,1.98-3.53,3.5s-1.28,3.09-1.28,4.73,.42,3.19,1.25,4.69,2,2.66,3.5,3.5,3.07,1.25,4.7,1.25,3.2-.42,4.7-1.25,2.67-2,3.5-3.5,1.25-3.06,1.25-4.69-.42-3.22-1.27-4.73c-.85-1.52-2.02-2.68-3.53-3.5s-3.06-1.22-4.64-1.22Zm-4.97,15.71v-12.18h4.19c1.43,0,2.47,.11,3.11,.34s1.15,.62,1.53,1.18,.57,1.16,.57,1.79c0,.89-.32,1.67-.95,2.33s-1.48,1.03-2.53,1.11c.43,.18,.78,.4,1.04,.65,.49,.48,1.09,1.29,1.8,2.42l1.49,2.39h-2.4l-1.08-1.92c-.85-1.51-1.54-2.46-2.06-2.84-.36-.28-.89-.42-1.58-.42h-1.16v5.18h-1.97Zm1.97-6.86h2.39c1.14,0,1.92-.17,2.33-.51s.62-.79,.62-1.35c0-.36-.1-.68-.3-.97s-.48-.5-.83-.64-1.01-.21-1.97-.21h-2.24v3.68Z"/></g></g></svg>