<svg id="Layer_1" data-name="Layer 1" xmlns="http://www.w3.org/2000/svg" xmlns:xlink="http://www.w3.org/1999/xlink" viewBox="0 0 492.04 89.17"><defs><style>.cls-1{fill:none;}.cls-2{isolation:isolate;}.cls-3{fill:#58595b;}.cls-4{clip-path:url(#clip-path);}.cls-5{fill:#fbbc05;}.cls-6{fill:#4285f4;}.cls-7{fill:#ea4335;}.cls-8{fill:#34a853;}</style><clipPath id="clip-path" transform="translate(0)"><rect class="cls-1" x="338" y="57.92" width="152.82" height="21.43"/></clipPath></defs><title>google-reviews</title><g class="cls-2"><g class="cls-2"><path class="cls-3" d="M339.08,46.36V20.28h9.4a18.15,18.15,0,0,1,3.9.4A8.9,8.9,0,0,1,355.56,22a6.71,6.71,0,0,1,2.16,2.5,8.46,8.46,0,0,1,.8,3.88,8.28,8.28,0,0,1-1.26,4.74,7.68,7.68,0,0,1-3.38,2.78l5.92,10.44h-6.6l-5-9.4H345v9.4ZM345,32.28h3a5.54,5.54,0,0,0,3.54-1,3.5,3.5,0,0,0,1.22-2.9,2.9,2.9,0,0,0-1.22-2.68A6.75,6.75,0,0,0,348,25h-3Z" transform="translate(0)"/><path class="cls-3" d="M363.6,46.36V20.28h16.32v5H369.48v5.24h8.88V35.4h-8.88v6h10.84v5Z" transform="translate(0)"/><path class="cls-3" d="M390,46.36l-7.88-26.08h6.24l3.12,12.16q.6,2.16,1.06,4.18t1.06,4.18h.16q.56-2.16,1-4.18t1-4.18L399,20.28h6l-7.84,26.08Z" transform="translate(0)"/><path class="cls-3" d="M407.76,46.36V20.28h5.88V46.36Z" transform="translate(0)"/><path class="cls-3" d="M419.8,46.36V20.28h16.32v5H425.68v5.24h8.88V35.4h-8.88v6h10.84v5Z" transform="translate(0)"/><path class="cls-3" d="M444,46.36,439.2,20.28h6l1.8,12.2q.24,2,.52,4.1t.52,4.14h.16q.4-2.08.78-4.14t.78-4.1l2.8-12.2h5l2.8,12.2q.4,2,.78,4.06t.78,4.18h.16q.28-2.12.54-4.16t.54-4.08l1.8-12.2h5.64L466,46.36h-7.4L456,34.52q-.32-1.52-.58-3.06t-.46-3h-.16l-.5,3q-.26,1.54-.58,3.06l-2.44,11.84Z" transform="translate(0)"/><path class="cls-3" d="M482.2,46.84a14.63,14.63,0,0,1-5.1-.94,13.28,13.28,0,0,1-4.54-2.82l3.36-4a12.67,12.67,0,0,0,3.1,2,8.15,8.15,0,0,0,3.34.76,4.52,4.52,0,0,0,2.74-.68,2.18,2.18,0,0,0,.9-1.84,2,2,0,0,0-.26-1,2.5,2.5,0,0,0-.76-.78,7.3,7.3,0,0,0-1.2-.64l-1.54-.66-3.4-1.44a10.11,10.11,0,0,1-1.94-1,8.53,8.53,0,0,1-1.68-1.5,6.78,6.78,0,0,1-1.18-2,7.11,7.11,0,0,1-.44-2.58,6.9,6.9,0,0,1,.68-3,7.49,7.49,0,0,1,1.92-2.48,9.17,9.17,0,0,1,2.94-1.66,11.15,11.15,0,0,1,3.74-.6,12.12,12.12,0,0,1,4.5.88,11.4,11.4,0,0,1,3.9,2.56l-3,3.72a11.43,11.43,0,0,0-2.56-1.54,7.25,7.25,0,0,0-2.84-.54,4.2,4.2,0,0,0-2.42.62,2,2,0,0,0-.9,1.74,1.71,1.71,0,0,0,.3,1,2.94,2.94,0,0,0,.84.76,8.58,8.58,0,0,0,1.26.64l1.56.66,3.36,1.36a9.17,9.17,0,0,1,3.78,2.64A6.77,6.77,0,0,1,492,38.76a7.39,7.39,0,0,1-2.58,5.66,9.55,9.55,0,0,1-3.1,1.76A12.29,12.29,0,0,1,482.2,46.84Z" transform="translate(0)"/></g></g><rect class="cls-3" x="303" y="5.36" width="6" height="79"/><g class="cls-4"><path class="cls-5" d="M348.17,73.45l6.28,3.79-1.66-7.15,5.55-4.81L351,64.66l-2.86-6.74-2.86,6.74-7.31.63,5.55,4.81-1.66,7.15Z" transform="translate(0)"/><path class="cls-5" d="M381.17,73.45l6.28,3.79-1.66-7.15,5.55-4.81L384,64.66l-2.86-6.74-2.86,6.74-7.31.63,5.55,4.81-1.66,7.15Z" transform="translate(0)"/><path class="cls-5" d="M414.17,73.45l6.28,3.79-1.66-7.15,5.55-4.81L417,64.66l-2.86-6.74-2.86,6.74-7.31.63,5.55,4.81-1.66,7.15Z" transform="translate(0)"/><path class="cls-5" d="M447.17,73.45l6.28,3.79-1.66-7.15,5.55-4.81L450,64.66l-2.86-6.74-2.86,6.74-7.31.63,5.55,4.81-1.66,7.15Z" transform="translate(0)"/><path class="cls-5" d="M480.17,73.45l6.28,3.79-1.66-7.15,5.55-4.81L483,64.66l-2.86-6.74-2.86,6.74-7.31.63,5.55,4.81-1.66,7.15Z" transform="translate(0)"/></g><path class="cls-6" d="M66.86,31.49H35.13v9.42H57.63c-1.11,13.2-12.1,18.84-22.47,18.84a25.15,25.15,0,0,1,0-50.3,24.43,24.43,0,0,1,17,6.81l6.59-6.83S50.29,0,34.85,0C15.2,0,0,16.59,0,34.5A35,35,0,0,0,35.36,69.18c18.52,0,32.08-12.69,32.08-31.45a28.23,28.23,0,0,0-.58-6.24h0Z" transform="translate(0)"/><path class="cls-7" d="M93,33.4c6.4,0,12.47,5.18,12.47,13.52,0,8.16-6,13.49-12.5,13.49-7.1,0-12.7-5.68-12.7-13.55,0-7.7,5.53-13.45,12.72-13.45Zm-.13-8.73A22.23,22.23,0,1,0,115.17,47C115.17,32.25,103.56,24.67,92.85,24.67Z" transform="translate(0)"/><path class="cls-5" d="M141.6,33.4c6.4,0,12.47,5.18,12.47,13.52,0,8.16-6,13.49-12.5,13.49-7.1,0-12.69-5.68-12.69-13.55,0-7.7,5.53-13.45,12.72-13.45Zm-.13-8.73A22.23,22.23,0,1,0,163.78,47C163.78,32.25,152.17,24.67,141.47,24.67Z" transform="translate(0)"/><path class="cls-6" d="M190,33.41c5.86,0,11.88,5,11.88,13.55s-6,13.47-12,13.47c-6.37,0-12.3-5.17-12.3-13.39C177.59,38.5,183.74,33.41,190,33.41Zm-.86-8.72c-12,0-21.35,10.47-21.35,22.22,0,13.38,10.89,22.26,21.14,22.26,6.34,0,9.71-2.52,12.2-5.4v4.38c0,7.67-4.66,12.27-11.69,12.27-6.79,0-10.2-5-11.38-7.92l-8.55,3.57c3,6.41,9.13,13.09,20,13.09,11.88,0,20.94-7.48,20.94-23.18V26h-9.32V29.8a15.73,15.73,0,0,0-12-5.1h0Z" transform="translate(0)"/><path class="cls-7" d="M252.3,33.19a8.86,8.86,0,0,1,8.23,4.75l-19.91,8.32C239.76,39.82,245.86,33.19,252.3,33.19Zm-.39-8.55c-11.27,0-20.74,9-20.74,22.21,0,14,10.55,22.31,21.82,22.31,9.41,0,15.18-5.15,18.63-9.76l-7.68-5.12A12.44,12.44,0,0,1,253,60.4c-6.25,0-9.12-3.42-10.91-6.74l29.81-12.37-1.55-3.63c-2.88-7.1-9.6-13-18.49-13h0Z" transform="translate(0)"/><path class="cls-8" d="M217,67.84h9.79V2.3H217Z" transform="translate(0)"/></svg>