<svg xmlns="http://www.w3.org/2000/svg" width="617.785" height="132.243" viewBox="0 0 617.785 132.243"><g transform="translate(-406 -268.73)"><g transform="translate(406.02 268.73)"><path d="M368.83,71.065a6.465,6.465,0,1,0-6.465,6.465A6.473,6.473,0,0,0,368.83,71.065Zm-6.465,2.707a2.7,2.7,0,1,1,2.7-2.7A2.71,2.71,0,0,1,362.365,73.772Z" transform="translate(-315.267 -57.221)" fill="#ee7219"/><path d="M92.751,302.238a1.89,1.89,0,0,0-2.981-1.062c-.377.285-9.332,7.2-14.2,16.665a1.895,1.895,0,0,0,1.279,2.707l4.946,1.062c-2,3.2-7.139,9.149-17.727,9.149h0a23.022,23.022,0,0,1-12.484-4.317,24.454,24.454,0,0,1-2.456,2.867,26.856,26.856,0,0,0,14.951,5.208c16.984,0,22.079-13.01,22.284-13.569a1.886,1.886,0,0,0-1.371-2.5l-4.854-1.039a53.762,53.762,0,0,1,9.572-11.239c1.748,10.12.046,19.52-4.877,26.727A25.164,25.164,0,0,1,67.5,343.916a30.13,30.13,0,0,0-20.434,12.45,30.159,30.159,0,0,0-20.434-12.45A25.14,25.14,0,0,1,9.291,332.894c-4.923-7.207-6.613-16.607-4.877-26.727a53.5,53.5,0,0,1,9.572,11.239L9.12,318.445a1.877,1.877,0,0,0-1.256.937,1.92,1.92,0,0,0-.114,1.565c.206.548,5.311,13.569,22.284,13.569.388-.011,10.04-.046,17.121-7.1,4.763-4.751,7.184-11.456,7.184-19.943v-7.333c0-.046.011-.1.011-.148V284.876a2.23,2.23,0,0,1,2.227-2.227H71.392a5.026,5.026,0,0,0,5.026-5.026v-.217a5.026,5.026,0,0,0-5.026-5.026H56.578a2.23,2.23,0,0,1-2.227-2.227l-.011-4.592a15.041,15.041,0,0,0-.72-4.683,12.285,12.285,0,0,0-.685-1.679,24.449,24.449,0,0,1-3.564,1.291,7.829,7.829,0,0,1,.64,1.462,11.448,11.448,0,0,1,.56,3.529v.057l.011,4.614a5.991,5.991,0,0,0,5.985,5.985H71.381a1.272,1.272,0,0,1,1.268,1.268v.217a1.263,1.263,0,0,1-1.268,1.256h-14.8a5.991,5.991,0,0,0-5.985,5.985v11.5c0,.046-.011.1-.011.148v10.942c0,22.992-19.691,23.278-20.537,23.278-10.657,0-15.762-5.928-17.738-9.138l4.957-1.062a1.874,1.874,0,0,0,1.3-1.039,1.9,1.9,0,0,0-.023-1.668c-4.866-9.469-13.821-16.379-14.2-16.665a1.862,1.862,0,0,0-1.77-.274,1.884,1.884,0,0,0-1.2,1.336C-1.548,314.562.154,326.2,6.185,335.019A28.851,28.851,0,0,0,26.1,347.64a26.482,26.482,0,0,1,19.1,12.77,1.861,1.861,0,0,0,1.816,1.428h.08a1.939,1.939,0,0,0,.834-.194,1.9,1.9,0,0,0,.994-1.245,26.45,26.45,0,0,1,19.1-12.77,28.851,28.851,0,0,0,19.92-12.621C93.974,326.2,95.675,314.562,92.751,302.238Z" transform="translate(0 -229.594)" fill="#ee7219"/><path d="M160.326,53.055h14.8a2.23,2.23,0,0,1,2.227,2.227V70.393a.651.651,0,0,0,.011.148v7.333a30.665,30.665,0,0,0,3.324,14.769,16.577,16.577,0,0,0,2.444-3.609,28.742,28.742,0,0,1-2-11.148V66.932a.652.652,0,0,0-.011-.148v-11.5A5.991,5.991,0,0,0,175.14,49.3H160.326a1.27,1.27,0,0,1-1.268-1.256v-.217a1.272,1.272,0,0,1,1.268-1.268h14.8a5.991,5.991,0,0,0,5.985-5.985l.011-4.614V35.9c0-.069-.16-6.282,4.363-7.424,8.441-2.136,11.4-7.253,12.427-10.862a1.4,1.4,0,0,0,.1-.308,13.336,13.336,0,0,0,.343-1.907,11.907,11.907,0,0,0,.091-1.61A13.856,13.856,0,0,0,186.413.126c-.069-.011-.148-.034-.228-.046A13.194,13.194,0,0,0,184.677,0h-.069A13.334,13.334,0,0,0,183.1.08a1.617,1.617,0,0,0-.228.046A13.848,13.848,0,0,0,170.834,13.8v.057h0a11.969,11.969,0,0,0,.091,1.519,13.5,13.5,0,0,0,.343,1.919,1.233,1.233,0,0,0,.114.308,14.392,14.392,0,0,0,6.465,8.407,11.237,11.237,0,0,1,3.038-2.616,10.994,10.994,0,0,1-5.928-6.819,1.474,1.474,0,0,0-.046-.217,10.216,10.216,0,0,1-.32-2.5,10.051,10.051,0,1,1,20.1,0,10.206,10.206,0,0,1-.308,2.5c-.011.046-.023.1-.034.148-.731,2.627-2.97,6.579-9.777,8.3a9.088,9.088,0,0,0-6.488,6.476,15.833,15.833,0,0,0-.72,4.683l-.011,4.592a2.23,2.23,0,0,1-2.227,2.227h-14.8a5.026,5.026,0,0,0-5.026,5.026v.217A5.026,5.026,0,0,0,160.326,53.055Z" transform="translate(-137.579)" fill="#ee7219"/></g><path d="M9.3-105.688V0H47.9C79.541,0,98.145-19.629,98.145-53.1S79.468-105.688,47.9-105.688ZM28.2-89.722H45.923c21.094,0,32.959,13.037,32.959,36.694,0,24.1-11.719,37.061-32.959,37.061H28.2Zm131.47-17.725c-30.835,0-50.171,21.021-50.171,54.639S128.833,1.758,159.668,1.758c30.762,0,50.1-20.947,50.1-54.565S190.43-107.446,159.668-107.446Zm0,16.113c18.823,0,30.835,14.941,30.835,38.525,0,23.511-12.012,38.452-30.835,38.452-18.9,0-30.835-14.941-30.835-38.452C128.833-76.392,140.771-91.333,159.668-91.333ZM270.337,1.758c24.976,0,42.261-13.7,45.557-36.328h-18.53c-2.93,12.744-12.964,20.288-26.953,20.288-18.311,0-29.883-14.868-29.883-38.6,0-23.584,11.646-38.525,29.81-38.525,13.7,0,24.463,8.716,26.953,21.973h18.6c-2.344-22.705-21.021-38.013-45.557-38.013-30.029,0-49.146,20.874-49.146,54.565C221.191-18.97,240.161,1.758,270.337,1.758ZM349.072,0V-33.984l10.4-12.158L393.823,0h23L372.949-58.813l40.723-46.875H391.919L349.731-56.25h-.659v-49.438h-18.9V0Zm72.949-29.736c.806,19.482,16.772,31.494,41.089,31.494,25.562,0,41.675-12.6,41.675-32.666,0-15.747-9.082-24.609-30.542-29.517l-12.158-2.783c-12.964-3.076-18.311-7.178-18.311-14.209,0-8.789,8.057-14.648,20-14.648,12.085,0,20.361,5.933,21.24,15.82h18.018c-.439-18.6-15.82-31.2-39.111-31.2-23,0-39.331,12.671-39.331,31.421,0,15.088,9.229,24.463,28.711,28.931l13.7,3.223c13.33,3.149,18.75,7.544,18.75,15.161,0,8.789-8.862,15.088-21.606,15.088-12.891,0-22.632-6.372-23.8-16.113Z" transform="translate(519 388)" fill="#fff"/></g></svg>